<svg width="512" height="512" viewBox="0 0 512 512" xmlns="http://www.w3.org/2000/svg">

  <defs>
    <radialGradient id="bg" cx="50%" cy="35%" r="85%">
      <stop offset="0%" stop-color="#0b1220"></stop>
      <stop offset="100%" stop-color="#05070f"></stop>
    </radialGradient>

    <filter id="shadow">
      <feDropShadow dx="0" dy="10" stdDeviation="12" flood-color="#000" flood-opacity="0.55"></feDropShadow>
    </filter>
  </defs>

  <!-- background -->
  <rect width="512" height="512" rx="96" fill="url(#bg)"></rect>

  <!-- FULL SYSTEM CONTAINER -->
  <g transform="translate(80,80)" filter="url(#shadow)">

    <!-- outer frame -->
    <rect x="0" y="0" width="352" height="352" rx="18" fill="#1e293b"></rect>

    <!-- inner border -->
    <rect x="10" y="10" width="332" height="332" rx="14" fill="none" stroke="#2a3b52" stroke-width="2" opacity="0.6"></rect>

    <!-- shelf separators -->
    <g stroke="#0f1722" stroke-width="10" opacity="1">
      <line x1="0" y1="88" x2="352" y2="88"></line>
      <line x1="0" y1="176" x2="352" y2="176"></line>
      <line x1="0" y1="264" x2="352" y2="264"></line>
    </g>

    <!-- ROW 1 -->
    <g>
      <rect x="16" y="18" width="22" height="62" fill="#38bdf8"></rect>
      <rect x="42" y="22" width="18" height="58" fill="#94a3b8"></rect>
      <rect x="64" y="18" width="26" height="62" fill="#1f2937"></rect>
      <rect x="94" y="24" width="20" height="56" fill="#a855f7"></rect>
      <rect x="118" y="20" width="24" height="60" fill="#38bdf8"></rect>
      <rect x="146" y="24" width="18" height="56" fill="#94a3b8"></rect>
      <rect x="168" y="18" width="22" height="62" fill="#38bdf8"></rect>
      <rect x="194" y="22" width="20" height="58" fill="#1f2937"></rect>
      <rect x="218" y="18" width="26" height="62" fill="#38bdf8"></rect>
      <rect x="248" y="24" width="18" height="56" fill="#94a3b8"></rect>
      <rect x="270" y="20" width="22" height="60" fill="#a855f7"></rect>
      <rect x="296" y="24" width="18" height="56" fill="#38bdf8"></rect>
    </g>

    <!-- ROW 2 -->
    <g>
      <rect x="16" y="106" width="20" height="62" fill="#1f2937"></rect>
      <rect x="40" y="110" width="22" height="58" fill="#38bdf8"></rect>
      <rect x="66" y="106" width="18" height="62" fill="#94a3b8"></rect>
      <rect x="88" y="112" width="26" height="56" fill="#a855f7"></rect>
      <rect x="118" y="108" width="20" height="60" fill="#38bdf8"></rect>
      <rect x="142" y="112" width="24" height="56" fill="#1f2937"></rect>
      <rect x="170" y="106" width="18" height="62" fill="#94a3b8"></rect>
      <rect x="192" y="110" width="22" height="58" fill="#38bdf8"></rect>
      <rect x="218" y="106" width="26" height="62" fill="#a855f7"></rect>
      <rect x="248" y="112" width="18" height="56" fill="#1f2937"></rect>
      <rect x="270" y="108" width="22" height="60" fill="#38bdf8"></rect>
      <rect x="296" y="112" width="18" height="56" fill="#94a3b8"></rect>
    </g>

    <!-- ROW 3 -->
    <g>
      <rect x="16" y="194" width="22" height="62" fill="#94a3b8"></rect>
      <rect x="42" y="198" width="18" height="58" fill="#38bdf8"></rect>
      <rect x="64" y="194" width="26" height="62" fill="#1f2937"></rect>
      <rect x="94" y="200" width="20" height="56" fill="#a855f7"></rect>
      <rect x="118" y="196" width="24" height="60" fill="#38bdf8"></rect>
      <rect x="146" y="200" width="18" height="56" fill="#94a3b8"></rect>
      <rect x="168" y="194" width="22" height="62" fill="#38bdf8"></rect>
      <rect x="194" y="198" width="20" height="58" fill="#1f2937"></rect>
      <rect x="218" y="194" width="26" height="62" fill="#a855f7"></rect>
      <rect x="248" y="200" width="18" height="56" fill="#38bdf8"></rect>
      <rect x="270" y="196" width="22" height="60" fill="#94a3b8"></rect>
      <rect x="296" y="200" width="18" height="56" fill="#1f2937"></rect>
    </g>

    <!-- ROW 4 (ADDED BELOW - FULL DEPTH COMPLETION) -->
    <g>
      <rect x="16" y="282" width="20" height="60" fill="#38bdf8"></rect>
      <rect x="40" y="286" width="22" height="56" fill="#1f2937"></rect>
      <rect x="66" y="282" width="18" height="60" fill="#94a3b8"></rect>
      <rect x="88" y="288" width="26" height="54" fill="#a855f7"></rect>
      <rect x="118" y="284" width="20" height="58" fill="#38bdf8"></rect>
      <rect x="142" y="288" width="24" height="54" fill="#1f2937"></rect>
      <rect x="170" y="282" width="18" height="60" fill="#94a3b8"></rect>
      <rect x="192" y="286" width="22" height="56" fill="#38bdf8"></rect>
      <rect x="218" y="282" width="26" height="60" fill="#a855f7"></rect>
      <rect x="248" y="288" width="18" height="54" fill="#1f2937"></rect>
      <rect x="270" y="284" width="22" height="58" fill="#38bdf8"></rect>
      <rect x="296" y="288" width="18" height="54" fill="#94a3b8"></rect>
    </g>

  </g>

</svg>